<?xml version="1.0" standalone="no"?>
<!DOCTYPE svg PUBLIC "-//W3C//DTD SVG 20010904//EN"
 "http://www.w3.org/TR/2001/REC-SVG-20010904/DTD/svg10.dtd">
<svg version="1.0" xmlns="http://www.w3.org/2000/svg"
 width="300.000000pt" height="300.000000pt" viewBox="0 0 300.000000 300.000000"
 preserveAspectRatio="xMidYMid meet">
<metadata>
Created by potrace 1.11, written by Peter Selinger 2001-2013
</metadata>
<g transform="translate(0.000000,300.000000) scale(0.100000,-0.100000)"
fill="#000000" stroke="none">
<path d="M1045 2984 c-5 -2 -28 -5 -50 -6 -56 -5 -41 -23 20 -24 46 -1 75 8
75 25 0 7 -29 11 -45 5z"/>
<path d="M1163 2979 c1 -6 -11 -14 -28 -16 -51 -7 -41 -13 26 -14 35 -1 77 -3
94 -5 16 -2 36 2 44 9 12 10 13 9 7 -1 -7 -11 -4 -11 13 0 19 12 19 13 3 19
-9 4 -25 2 -35 -3 -12 -6 -23 -5 -32 2 -20 17 -96 23 -92 9z"/>
<path d="M1370 2964 c0 -4 8 -13 18 -20 15 -12 13 -13 -13 -3 -29 10 -29 9
-13 -7 12 -12 30 -17 58 -16 22 2 40 -1 40 -6 0 -8 35 -26 127 -64 15 -6 33
-12 39 -13 25 -6 63 -38 57 -48 -3 -5 -1 -7 5 -3 6 3 13 2 17 -3 8 -14 97 -73
113 -75 16 -3 33 -27 26 -38 -3 -5 -10 -5 -16 -2 -5 3 3 -12 18 -35 19 -29 30
-38 35 -29 5 7 11 -9 15 -40 3 -29 11 -52 16 -52 5 0 6 -6 2 -12 -4 -8 -3 -9
2 -5 15 14 13 70 -3 107 -8 19 -31 60 -51 90 -61 93 -231 201 -400 254 -91 29
-92 29 -92 20z m504 -330 c8 -21 -12 -17 -24 6 -8 16 -8 18 4 14 8 -3 17 -12
20 -20z"/>
<path d="M835 2950 c-4 -6 3 -10 14 -10 25 0 27 6 6 13 -8 4 -17 2 -20 -3z"/>
<path d="M1026 2910 c-27 -11 -75 -22 -105 -25 -96 -11 -165 -23 -191 -34 -24
-11 -24 -11 5 -5 39 8 29 -2 -41 -37 -64 -32 -85 -31 -33 0 19 12 28 21 21 21
-7 0 -32 -13 -55 -29 -57 -39 -143 -81 -151 -74 -5 5 -72 -40 -86 -57 -3 -4
-18 -10 -33 -14 -20 -5 -27 -11 -23 -22 4 -10 -8 -21 -39 -35 -25 -12 -45 -25
-45 -31 0 -5 -5 -6 -12 -2 -7 4 -8 3 -4 -4 4 -6 -5 -17 -21 -26 -27 -13 -61
-47 -94 -90 -7 -11 -9 -17 -4 -14 6 4 17 3 25 -2 11 -7 10 -13 -4 -35 -10 -15
-15 -29 -12 -32 3 -3 18 15 33 40 15 26 37 50 48 53 11 4 33 21 48 38 16 17
26 25 22 19 -13 -26 11 -12 65 37 56 51 185 125 232 134 14 2 44 16 66 31 22
14 46 25 54 23 12 -2 122 33 158 51 8 4 45 7 83 7 37 -1 67 2 67 6 0 4 9 9 19
13 17 5 30 8 76 18 6 2 16 7 24 11 11 7 13 5 8 -7 -4 -12 -1 -17 11 -17 15 0
15 -2 2 -11 -11 -8 -6 -9 20 -4 64 12 85 13 90 5 3 -5 27 -10 53 -12 26 -2 53
-10 59 -16 7 -7 27 -12 45 -12 25 0 38 -7 55 -31 18 -23 28 -29 46 -24 34 8
62 -3 62 -26 0 -10 3 -19 8 -19 4 0 23 -14 42 -30 19 -16 42 -30 51 -30 18 0
52 -34 43 -43 -3 -3 3 -10 15 -16 l20 -11 -20 -35 c-12 -19 -25 -32 -30 -29
-5 3 -9 -6 -9 -20 0 -20 -8 -29 -33 -40 -19 -7 -42 -24 -53 -37 -10 -13 -30
-29 -44 -36 -23 -11 -119 -47 -130 -49 -3 0 -12 -3 -20 -6 -8 -4 -30 -11 -49
-17 l-33 -11 5 45 c7 57 11 62 47 70 17 4 30 11 30 16 0 7 29 19 60 24 27 5
49 18 44 27 -4 6 -1 9 7 6 8 -3 20 1 27 8 7 7 19 11 27 7 11 -4 13 -1 9 11 -8
20 -28 21 -44 1 -7 -8 -18 -15 -24 -15 -7 0 -18 -6 -24 -12 -7 -7 -18 -13 -25
-13 -25 0 -111 -40 -131 -60 -12 -12 -20 -29 -18 -38 2 -10 -5 -20 -15 -24
-10 -3 -29 -18 -43 -32 -31 -31 -46 -36 -54 -16 -3 8 3 16 14 20 10 3 21 12
24 20 4 11 -2 13 -27 8 -33 -6 -61 -23 -38 -23 7 0 10 -4 6 -10 -3 -5 -12 -7
-20 -4 -7 3 -22 1 -32 -5 -16 -10 -15 -11 7 -9 14 2 26 -1 26 -7 1 -5 -2 -9
-6 -8 -4 1 -22 -2 -38 -7 -22 -6 -32 -5 -36 3 -3 9 -7 8 -14 -2 -7 -10 -11
-10 -14 -1 -3 9 -23 0 -61 -25 -32 -21 -66 -39 -75 -40 -48 -5 -81 -22 -119
-61 -24 -23 -43 -45 -43 -48 0 -4 -12 -20 -27 -37 -16 -16 -35 -43 -44 -59
-17 -32 -20 -121 -4 -127 6 -2 10 11 9 29 0 18 3 44 7 58 l7 25 2 -25 c1 -14
3 -32 5 -40 2 -8 6 -26 9 -39 3 -14 11 -28 17 -32 6 -4 9 -11 5 -17 -3 -6 10
-24 31 -41 20 -17 34 -33 31 -36 -3 -4 -17 5 -31 19 -26 26 -47 34 -47 17 0
-5 4 -11 9 -13 10 -3 14 -22 12 -53 -1 -18 -4 -17 -27 10 -17 21 -22 23 -15 8
16 -33 71 -69 81 -53 4 7 13 9 19 6 17 -11 63 -105 56 -116 -3 -5 16 -24 42
-42 26 -18 62 -48 80 -67 23 -24 38 -32 53 -28 14 4 25 -2 35 -17 9 -13 33
-29 55 -36 38 -13 44 -20 41 -47 -1 -7 12 -19 28 -28 16 -8 37 -25 45 -37 9
-12 18 -19 22 -15 10 9 46 -12 39 -23 -3 -6 0 -7 7 -5 8 3 22 -1 33 -10 14
-11 15 -13 4 -9 -36 12 -26 -16 19 -54 75 -65 103 -95 126 -132 26 -42 32 -82
10 -73 -20 7 -18 -4 12 -54 14 -24 23 -49 21 -56 -6 -15 24 -67 38 -67 6 0 12
-11 13 -25 2 -25 -17 -37 -19 -12 -1 6 -4 -4 -8 -23 -4 -22 -2 -40 5 -47 15
-15 11 -49 -5 -46 -7 2 -7 -5 -1 -23 11 -29 6 -44 -16 -44 -10 0 -13 -7 -8
-23 4 -17 -4 -38 -26 -71 -18 -26 -29 -50 -26 -53 3 -4 6 -1 6 5 0 7 3 11 8
11 20 -3 31 3 37 21 4 11 11 18 16 15 5 -4 9 -1 9 6 0 23 43 108 52 103 9 -6
10 -1 10 76 l0 55 9 -50 c11 -64 4 -117 -26 -174 -12 -25 -26 -61 -30 -80 -7
-31 -5 -33 11 -26 11 4 26 8 34 9 8 0 20 13 27 28 6 15 33 48 60 75 26 26 49
55 51 63 2 8 -9 2 -22 -15 l-26 -30 7 45 c4 25 7 62 7 83 0 41 19 50 31 15 4
-13 7 -27 6 -31 -1 -5 4 -7 11 -5 16 5 24 48 9 48 -24 0 -43 51 -46 127 -3 62
-2 73 7 55 6 -12 15 -22 20 -22 5 0 6 -6 2 -12 -5 -10 -4 -10 6 -1 10 10 11
15 1 27 -8 10 -9 16 -1 21 7 4 5 11 -5 21 -8 9 -15 21 -16 27 -2 53 -12 81
-48 142 -22 38 -41 75 -41 81 0 7 -16 19 -35 28 -41 20 -95 64 -95 78 0 5 15
0 33 -12 27 -18 26 -16 -8 14 -22 20 -46 34 -52 31 -7 -2 -13 2 -13 10 0 8 -5
15 -11 15 -7 0 -9 9 -6 21 4 15 -1 23 -19 31 -13 6 -24 15 -24 20 0 5 5 6 10
3 17 -10 11 11 -10 36 -10 13 -19 18 -20 12 -1 -33 -60 13 -63 48 -1 10 -8 19
-17 19 -9 0 -26 10 -37 23 -12 12 -33 30 -48 40 -14 11 -24 21 -21 24 5 5 -38
40 -111 91 -10 7 -12 10 -4 6 9 -5 12 -3 7 4 -5 9 -12 9 -25 0 -10 -6 -27 -8
-37 -4 -18 7 -18 8 -1 17 9 6 22 7 29 3 8 -5 9 -2 5 10 -6 14 -3 17 9 12 8 -3
18 -6 20 -6 2 0 4 -6 4 -13 0 -7 14 -23 30 -35 35 -26 38 -18 7 19 -38 45 -71
61 -101 49 -38 -14 -39 -14 -79 27 -50 49 -47 64 3 19 40 -36 60 -45 60 -26 0
6 -11 15 -24 22 -14 6 -27 17 -30 25 -4 11 -1 11 17 3 19 -10 20 -9 5 2 -9 7
-25 19 -35 26 -17 12 -17 13 1 7 16 -5 17 -3 6 10 -11 13 -15 12 -36 -12 -21
-24 -26 -26 -34 -13 -17 26 -9 36 23 31 5 -1 6 8 2 19 -4 11 0 29 9 42 20 28
21 44 2 29 -7 -6 -22 -9 -32 -5 -11 3 -15 2 -8 -3 24 -18 10 -49 -19 -44 -5 1
-5 -8 -2 -20 5 -16 3 -20 -6 -17 -8 3 -14 16 -14 29 0 13 -3 29 -7 35 -5 7 -1
14 8 18 8 3 13 10 10 15 -9 14 4 41 20 41 8 0 14 -9 14 -21 0 -18 4 -20 28
-14 15 3 31 13 35 21 4 8 21 14 37 14 16 0 32 5 36 11 4 8 9 8 13 1 4 -7 19
-3 41 11 19 12 49 23 66 24 32 2 74 29 74 46 0 5 -7 4 -15 -3 -8 -7 -22 -10
-30 -6 -11 4 -14 2 -9 -7 5 -8 2 -8 -9 2 -15 12 -21 9 -52 -18 -40 -35 -53
-38 -61 -16 -9 23 12 42 69 61 28 9 58 24 66 32 13 12 16 12 25 0 19 -25 47
-30 67 -12 12 11 19 13 19 5 0 -9 5 -9 23 0 18 9 20 9 10 -2 -18 -19 -16 -34
2 -19 9 7 18 10 22 7 3 -4 12 5 20 19 17 35 17 39 -4 23 -13 -11 -13 -8 2 13
20 28 75 55 75 37 0 -5 -5 -9 -11 -9 -5 0 -8 -4 -4 -9 3 -5 -3 -16 -13 -23
-28 -20 -34 -36 -14 -34 9 0 25 10 34 21 10 12 17 15 18 8 0 -8 10 -3 22 9 13
13 22 26 21 29 -5 14 76 80 98 81 13 1 42 18 64 39 22 20 59 46 81 58 l42 20
-2 -23 c0 -13 -5 -22 -9 -19 -4 3 -16 -5 -26 -16 -10 -12 -26 -21 -35 -21 -9
0 -16 -4 -16 -9 0 -5 -9 -12 -20 -16 -21 -7 -80 -61 -80 -74 0 -7 18 -8 53 -2
5 0 6 5 3 10 -8 12 42 44 59 38 7 -3 24 7 38 21 31 34 66 89 50 79 -7 -5 -13
-4 -13 1 0 14 26 33 33 25 4 -3 7 -2 7 3 0 5 9 20 20 34 15 18 18 20 13 6 -4
-13 -3 -17 5 -12 7 4 12 13 12 20 0 7 9 25 21 40 11 14 17 26 12 26 -5 0 -15
-9 -23 -19 -7 -11 -16 -18 -20 -16 -3 2 -14 -9 -24 -25 -14 -24 -20 -28 -31
-17 -11 10 -11 16 3 37 27 41 25 135 -4 198 -14 28 -27 52 -30 52 -4 0 -3 -8
0 -17 6 -15 4 -14 -14 2 -11 10 -19 24 -16 31 10 26 -60 75 -125 88 -13 2 -53
18 -89 35 -36 17 -71 31 -78 31 -7 0 -10 5 -7 10 7 11 -27 27 -74 35 -16 3
-41 12 -57 20 -31 16 -109 21 -100 6 4 -5 0 -11 -6 -14 -17 -5 -49 4 -43 12 2
4 -1 8 -8 8 -7 1 -32 4 -57 7 -32 4 -60 0 -94 -14z m424 -62 c0 -11 -28 -10
-35 1 -3 6 4 9 15 8 11 -1 20 -5 20 -9z m65 -549 c-7 -19 -52 -39 -86 -39 -15
0 -31 -4 -34 -10 -8 -13 -25 -13 -25 -1 0 11 89 47 106 43 6 -1 17 5 24 13 15
18 23 14 15 -6z m-332 -94 c-17 -23 -43 -34 -43 -17 0 6 48 41 58 42 2 0 -5
-11 -15 -25z m-108 -55 c-3 -5 -12 -10 -18 -10 -7 0 -6 4 3 10 19 12 23 12 15
0z m-40 -20 c-5 -9 16 -14 52 -13 7 1 10 -3 7 -8 -3 -5 -15 -9 -27 -9 -12 -1
-33 -7 -47 -15 -40 -23 -43 -18 -13 20 27 33 41 46 28 25z m-128 -43 c-15 -34
-36 -42 -56 -22 -11 11 -12 15 -2 15 7 0 19 7 28 15 8 8 19 13 24 10 5 -4 9
-1 9 6 0 7 2 10 5 7 3 -2 -1 -16 -8 -31z m-57 -50 c0 -16 -37 -51 -62 -60 -10
-4 -18 -11 -18 -18 0 -6 7 -8 18 -4 13 5 14 3 6 -5 -7 -7 -10 -28 -6 -52 3
-28 2 -39 -6 -34 -6 3 -15 -1 -20 -10 -8 -14 -11 -11 -20 15 -21 59 43 181 94
181 8 0 14 -6 14 -13z m70 -207 c0 -5 -2 -10 -4 -10 -3 0 -8 5 -11 10 -3 6 -1
10 4 10 6 0 11 -4 11 -10z m-60 -84 c0 -13 44 -56 58 -56 5 0 51 -40 103 -90
51 -49 101 -90 110 -90 9 0 16 -7 16 -15 0 -10 -8 -15 -20 -13 -11 2 -22 -4
-24 -12 -4 -12 -3 -12 5 -1 6 8 12 9 16 3 3 -5 26 -13 51 -16 25 -4 45 -11 45
-15 0 -4 11 -14 25 -21 13 -7 23 -16 22 -20 -1 -3 29 -37 67 -73 38 -37 66
-70 62 -74 -9 -9 -56 18 -56 33 0 6 -16 21 -35 33 -19 11 -35 27 -35 35 0 7
-11 21 -25 30 -31 20 -41 21 -25 1 10 -12 9 -15 -4 -15 -28 0 -58 20 -52 36 5
13 -5 18 -30 15 -6 -1 -30 17 -54 40 -23 22 -44 38 -48 35 -3 -3 -13 1 -22 9
-10 9 -32 20 -51 25 l-34 9 35 -31 c38 -35 17 -32 -37 5 -23 15 -29 25 -22 34
7 8 5 22 -6 45 -16 32 -15 31 20 -9 20 -24 41 -43 47 -43 6 0 3 10 -8 22 -19
21 -19 21 4 16 32 -9 27 5 -10 27 -57 33 -117 110 -112 143 3 22 4 23 14 17 6
-3 10 -12 10 -19z m570 -386 c0 -5 -4 -10 -10 -10 -5 0 -10 5 -10 10 0 6 5 10
10 10 6 0 10 -4 10 -10z m95 -140 c3 -5 1 -10 -4 -10 -6 0 -11 5 -11 10 0 6 2
10 4 10 3 0 8 -4 11 -10z m-61 -66 c87 -76 96 -86 102 -110 3 -13 10 -24 15
-24 5 0 9 -6 9 -14 0 -8 4 -16 8 -18 5 -1 12 -17 15 -35 5 -27 4 -31 -13 -28
-13 3 -17 -1 -13 -11 4 -10 0 -12 -11 -8 -9 3 -16 11 -15 18 2 20 -13 56 -23
56 -7 0 -6 5 0 13 23 27 -16 110 -52 113 -20 1 -76 26 -76 33 0 4 5 12 12 19
9 9 9 12 0 12 -7 0 -12 -5 -12 -11 0 -5 -4 -7 -10 -4 -5 3 -10 1 -10 -4 0 -19
-16 -12 -17 8 -1 14 3 17 18 14 10 -3 19 0 19 6 0 18 10 13 54 -25z"/>
<path d="M755 1920 c-3 -5 1 -10 10 -10 9 0 13 5 10 10 -3 6 -8 10 -10 10 -2
0 -7 -4 -10 -10z"/>
<path d="M1010 1541 c0 -5 16 -18 36 -30 l35 -21 -18 30 c-16 28 -53 42 -53
21z"/>
<path d="M672 2889 c-12 -19 -11 -19 8 -9 11 6 18 15 15 21 -8 12 -8 12 -23
-12z"/>
<path d="M630 2880 c-9 -6 -10 -10 -3 -10 6 0 15 5 18 10 8 12 4 12 -15 0z"/>
<path d="M1515 2700 c3 -5 13 -10 21 -10 8 0 14 5 14 10 0 6 -9 10 -21 10 -11
0 -17 -4 -14 -10z"/>
<path d="M1350 2690 c-17 -11 -8 -54 13 -58 10 -2 17 3 17 13 0 9 7 16 18 14
35 -3 56 1 47 10 -16 15 -81 29 -95 21z"/>
<path d="M1508 2653 c12 -2 22 -10 22 -18 0 -7 12 -15 27 -18 l28 -5 -28 24
c-16 13 -38 23 -50 23 l-22 -2 23 -4z"/>
<path d="M1417 2632 c-14 -3 -16 -7 -6 -18 6 -8 19 -14 28 -14 9 0 33 -9 53
-20 30 -16 37 -17 42 -5 3 8 2 14 -2 13 -9 -2 -86 32 -92 41 -3 4 -13 5 -23 3z"/>
<path d="M1590 2610 c0 -4 7 -11 16 -14 9 -4 14 -13 10 -21 -3 -8 -1 -15 4
-15 5 0 16 -7 25 -16 22 -22 31 -9 15 21 -13 25 -70 61 -70 45z"/>
<path d="M1556 2592 c-6 -10 -3 -33 7 -49 5 -7 5 -13 1 -13 -4 0 2 -10 13 -22
11 -13 22 -30 25 -38 3 -9 17 -16 31 -18 51 -4 35 68 -20 89 -16 6 -23 15 -20
24 4 9 1 12 -7 9 -8 -3 -17 0 -22 7 -4 8 -3 10 4 5 7 -4 12 -2 12 3 0 13 -17
15 -24 3z"/>
<path d="M555 2491 c-54 -25 -72 -48 -80 -101 -3 -25 -8 -56 -10 -70 -6 -36
-17 -112 -20 -135 -1 -11 -6 -44 -10 -74 -3 -30 -9 -63 -11 -75 -3 -12 -7 -39
-9 -61 -3 -22 -7 -51 -10 -65 -3 -14 -14 -81 -25 -150 -11 -69 -40 -237 -64
-375 l-45 -249 25 -33 c33 -43 72 -69 85 -56 5 5 11 23 13 39 3 16 16 92 30
169 14 77 28 156 31 175 3 19 8 49 12 65 3 17 7 37 9 45 1 8 5 33 8 55 3 22 8
51 11 65 2 14 7 36 10 50 2 14 7 43 10 65 3 23 8 52 11 65 2 14 6 39 8 55 2
17 9 57 15 90 6 33 13 83 17 110 3 28 8 59 10 70 4 20 30 204 39 277 3 21 6
43 7 50 5 19 -24 19 -67 -1z"/>
<path d="M1870 2489 c0 -5 5 -7 10 -4 6 3 10 8 10 11 0 2 -4 4 -10 4 -5 0 -10
-5 -10 -11z"/>
<path d="M2668 2475 c-1 -2 -32 -4 -68 -6 -195 -7 -490 -126 -870 -352 -252
-150 -331 -211 -373 -292 -28 -55 -28 -127 2 -188 29 -59 134 -167 226 -231
174 -122 271 -207 408 -359 92 -101 185 -279 204 -385 39 -230 -100 -416 -411
-548 -55 -24 -101 -49 -101 -56 0 -28 76 -42 235 -42 187 -1 230 9 422 97 456
209 533 556 209 947 -104 126 -203 216 -355 325 -191 137 -295 252 -311 345
-21 119 89 231 370 380 55 29 152 81 215 115 138 75 254 127 335 151 57 17 95
39 95 55 0 13 -64 31 -135 35 -38 3 -75 7 -82 9 -6 2 -13 2 -15 0z"/>
<path d="M1870 2459 c0 -5 5 -7 10 -4 6 3 10 8 10 11 0 2 -4 4 -10 4 -5 0 -10
-5 -10 -11z"/>
<path d="M1443 2397 c-29 -13 -29 -23 -2 -30 12 -3 22 0 26 8 9 24 -1 33 -24
22z"/>
<path d="M1575 2400 c-4 -7 -26 -20 -49 -31 l-41 -19 35 5 c34 5 80 39 68 50
-3 4 -9 1 -13 -5z"/>
<path d="M1573 2190 c-13 -5 -23 -14 -23 -20 0 -6 11 -3 25 6 14 9 25 18 25
20 0 5 0 5 -27 -6z"/>
<path d="M1560 2141 c-8 -6 -18 -7 -24 -4 -5 3 -6 1 -3 -5 8 -11 44 -5 53 9 7
12 -7 11 -26 0z"/>
<path d="M680 1802 c0 -20 22 -61 36 -66 8 -3 5 9 -8 32 -27 47 -28 48 -28 34z"/>
<path d="M805 1621 c-3 -5 0 -13 6 -17 7 -4 9 -3 5 4 -3 5 0 13 6 15 9 4 10 6
1 6 -6 1 -14 -3 -18 -8z"/>
<path d="M1240 1553 c0 -15 9 -24 32 -32 34 -12 102 -78 85 -84 -5 -1 -2 -8 6
-15 12 -10 16 -10 20 0 5 16 -89 126 -99 116 -3 -4 -15 3 -25 15 l-18 22 -1
-22z"/>
<path d="M1474 1326 c20 -49 21 -50 39 -39 17 9 10 23 -32 58 l-23 20 16 -39z"/>
<path d="M1530 1261 c0 -5 5 -13 10 -16 6 -3 10 -2 10 4 0 5 -4 13 -10 16 -5
3 -10 2 -10 -4z"/>
<path d="M1755 736 c10 -7 16 -19 13 -27 -3 -8 -2 -23 2 -34 6 -18 7 -17 12 6
6 35 -8 69 -29 69 -15 0 -15 -1 2 -14z"/>
<path d="M1740 574 c0 -13 18 -39 24 -34 2 3 -2 14 -10 24 -8 11 -14 16 -14
10z"/>
<path d="M1488 359 c-10 -10 -18 -21 -18 -24 0 -9 40 19 44 32 8 19 -6 14 -26
-8z"/>
<path d="M1432 335 c-6 -14 -8 -25 -3 -25 4 0 13 11 19 25 6 14 8 25 3 25 -4
0 -13 -11 -19 -25z"/>
<path d="M1553 334 c4 -4 2 -13 -4 -21 -7 -8 -8 -13 -1 -13 5 0 15 6 21 14 9
11 8 15 -6 20 -10 4 -14 4 -10 0z"/>
<path d="M1575 280 c3 -5 -7 -17 -22 -27 -15 -9 -30 -18 -31 -19 -2 -1 0 -10
6 -19 8 -15 13 -12 40 21 36 43 39 54 16 54 -8 0 -13 -4 -9 -10z"/>
<path d="M1540 270 c-8 -5 -12 -12 -9 -15 4 -3 12 1 19 10 14 17 11 19 -10 5z"/>
<path d="M1463 224 c-48 -50 -50 -54 -27 -54 14 0 14 -3 4 -15 -17 -21 7 -20
35 1 16 12 17 17 6 23 -10 7 -10 12 5 29 14 17 31 65 21 61 -1 0 -21 -21 -44
-45z"/>
<path d="M1375 148 c-8 -13 -21 -23 -28 -23 -6 0 -13 -8 -15 -18 -3 -16 0 -15
32 4 21 12 36 29 36 40 0 25 -5 24 -25 -3z"/>
</g>
</svg>
